<?xml version="1.0" encoding="UTF-8"?>
<!DOCTYPE svg PUBLIC "-//W3C//DTD SVG 1.1//EN" "http://www.w3.org/Graphics/SVG/1.1/DTD/svg11.dtd">
<svg xmlns="http://www.w3.org/2000/svg" version="1.1" width="512px" height="512px" style="shape-rendering:geometricPrecision; text-rendering:geometricPrecision; image-rendering:optimizeQuality; fill-rule:evenodd; clip-rule:evenodd">
<g><path style="opacity:1" fill="#222222" d="M -0.5,-0.5 C 170.167,-0.5 340.833,-0.5 511.5,-0.5C 511.5,126.167 511.5,252.833 511.5,379.5C 504.152,371.498 495.818,364.498 486.5,358.5C 441.042,322.881 395.708,287.047 350.5,251C 347.826,249.412 344.992,248.245 342,247.5C 339.849,247.643 338.182,248.643 337,250.5C 336.5,279.831 336.333,309.165 336.5,338.5C 266.146,338.967 195.813,338.467 125.5,337C 90.7876,333.5 59.7876,321.334 32.5,300.5C 28.1032,294.323 23.2698,293.99 18,299.5C 22.16,336.307 37.66,367.474 64.5,393C 85.9872,410.397 110.654,420.064 138.5,422C 203.832,422.5 269.166,422.667 334.5,422.5C 334.333,450.169 334.5,477.835 335,505.5C 337.339,510.256 340.839,511.423 345.5,509C 401.043,467.401 456.376,425.567 511.5,383.5C 511.5,426.167 511.5,468.833 511.5,511.5C 340.833,511.5 170.167,511.5 -0.5,511.5C -0.5,385.167 -0.5,258.833 -0.5,132.5C 54.0011,176.486 109.001,219.986 164.5,263C 169.428,264.643 172.928,263.143 175,258.5C 175.5,229.835 175.667,201.169 175.5,172.5C 240.501,172.333 305.501,172.5 370.5,173C 400.945,174.111 429.612,181.778 456.5,196C 466.373,202.558 476.206,209.058 486,215.5C 490.544,214.956 493.044,212.456 493.5,208C 491.509,195.204 487.842,183.037 482.5,171.5C 464.145,124.303 429.812,97.136 379.5,90C 373.833,89.6667 368.167,89.3333 362.5,89C 300.501,88.5 238.501,88.3333 176.5,88.5C 176.667,60.8313 176.5,33.1647 176,5.5C 173.442,1.78836 169.942,0.62169 165.5,2C 117.919,37.6109 70.5856,73.4442 23.5,109.5C 14.7374,114.541 6.7374,120.541 -0.5,127.5C -0.5,84.8333 -0.5,42.1667 -0.5,-0.5 Z"/></g>
<g><path style="opacity:1" fill="#e02436" d="M 482.5,171.5 C 482.103,172.525 481.437,172.692 480.5,172C 447.739,146.409 410.406,133.076 368.5,132C 316.833,131.333 265.167,131.333 213.5,132C 186.09,131.905 173.424,145.405 175.5,172.5C 174.669,187.995 174.169,203.661 174,219.5C 172.139,223.007 169.305,224.173 165.5,223C 117.547,186.048 69.8799,148.715 22.5,111C 23.056,110.617 23.3893,110.117 23.5,109.5C 70.5856,73.4442 117.919,37.6109 165.5,2C 169.942,0.62169 173.442,1.78836 176,5.5C 176.5,33.1647 176.667,60.8313 176.5,88.5C 238.501,88.3333 300.501,88.5 362.5,89C 368.167,89.3333 373.833,89.6667 379.5,90C 429.812,97.136 464.145,124.303 482.5,171.5 Z"/></g>
<g><path style="opacity:1" fill="#c31a32" d="M 23.5,109.5 C 23.3893,110.117 23.056,110.617 22.5,111C 69.8799,148.715 117.547,186.048 165.5,223C 169.305,224.173 172.139,223.007 174,219.5C 174.169,203.661 174.669,187.995 175.5,172.5C 175.667,201.169 175.5,229.835 175,258.5C 172.928,263.143 169.428,264.643 164.5,263C 109.001,219.986 54.0011,176.486 -0.5,132.5C -0.5,130.833 -0.5,129.167 -0.5,127.5C 6.7374,120.541 14.7374,114.541 23.5,109.5 Z"/></g>
<g><path style="opacity:1" fill="#c41a32" d="M 482.5,171.5 C 487.842,183.037 491.509,195.204 493.5,208C 493.044,212.456 490.544,214.956 486,215.5C 476.206,209.058 466.373,202.558 456.5,196C 429.612,181.778 400.945,174.111 370.5,173C 305.501,172.5 240.501,172.333 175.5,172.5C 173.424,145.405 186.09,131.905 213.5,132C 265.167,131.333 316.833,131.333 368.5,132C 410.406,133.076 447.739,146.409 480.5,172C 481.437,172.692 482.103,172.525 482.5,171.5 Z"/></g>
<g><path style="opacity:1" fill="#1bba85" d="M 486.5,358.5 C 439.677,394.798 392.344,430.632 344.5,466C 341.044,467.123 338.21,466.29 336,463.5C 335.831,449.661 335.331,435.994 334.5,422.5C 336.217,407.128 331.217,394.628 319.5,385C 315.167,382.416 310.5,380.749 305.5,380C 248.865,378.691 192.198,378.024 135.5,378C 86.0043,372.442 51.0043,347.109 30.5,302C 30.8361,300.97 31.5028,300.47 32.5,300.5C 59.7876,321.334 90.7876,333.5 125.5,337C 195.813,338.467 266.146,338.967 336.5,338.5C 336.333,309.165 336.5,279.831 337,250.5C 338.182,248.643 339.849,247.643 342,247.5C 344.992,248.245 347.826,249.412 350.5,251C 395.708,287.047 441.042,322.881 486.5,358.5 Z"/></g>
<g><path style="opacity:1" fill="#149161" d="M 32.5,300.5 C 31.5028,300.47 30.8361,300.97 30.5,302C 51.0043,347.109 86.0043,372.442 135.5,378C 192.198,378.024 248.865,378.691 305.5,380C 310.5,380.749 315.167,382.416 319.5,385C 331.217,394.628 336.217,407.128 334.5,422.5C 269.166,422.667 203.832,422.5 138.5,422C 110.654,420.064 85.9872,410.397 64.5,393C 37.66,367.474 22.16,336.307 18,299.5C 23.2698,293.99 28.1032,294.323 32.5,300.5 Z"/></g>
<g><path style="opacity:1" fill="#149161" d="M 486.5,358.5 C 495.818,364.498 504.152,371.498 511.5,379.5C 511.5,380.833 511.5,382.167 511.5,383.5C 456.376,425.567 401.043,467.401 345.5,509C 340.839,511.423 337.339,510.256 335,505.5C 334.5,477.835 334.333,450.169 334.5,422.5C 335.331,435.994 335.831,449.661 336,463.5C 338.21,466.29 341.044,467.123 344.5,466C 392.344,430.632 439.677,394.798 486.5,358.5 Z"/></g>
</svg>
