<?xml version="1.0" encoding="UTF-8"?>
<!DOCTYPE svg PUBLIC "-//W3C//DTD SVG 1.1//EN" "http://www.w3.org/Graphics/SVG/1.1/DTD/svg11.dtd">
<svg xmlns="http://www.w3.org/2000/svg" version="1.1" width="1000px" height="1080px" style="shape-rendering:geometricPrecision; text-rendering:geometricPrecision; image-rendering:optimizeQuality; fill-rule:evenodd; clip-rule:evenodd">
<g><path style="opacity:1" fill="#222222" d="M -0.5,-0.5 C 332.833,-0.5 666.167,-0.5 999.5,-0.5C 999.5,359.5 999.5,719.5 999.5,1079.5C 666.167,1079.5 332.833,1079.5 -0.5,1079.5C -0.5,719.5 -0.5,359.5 -0.5,-0.5 Z"/></g>
<g><path style="opacity:1" fill="#fdd900" d="M 461.5,138.5 C 461.343,139.873 461.51,141.207 462,142.5C 462.333,142.167 462.667,141.833 463,141.5C 463.791,143.604 465.291,144.937 467.5,145.5C 466.603,145.669 465.603,146.002 464.5,146.5C 466.867,149.347 469.867,151.18 473.5,152C 471.203,153.16 471.536,154.16 474.5,155C 474.167,155.333 473.833,155.667 473.5,156C 477.906,156.907 482.239,158.074 486.5,159.5C 557.15,217.486 627.483,275.819 697.5,334.5C 697.631,335.239 697.464,335.906 697,336.5C 696.346,335.304 695.846,335.304 695.5,336.5C 696.531,337.7 697.365,339.034 698,340.5C 698.414,340.043 698.914,339.709 699.5,339.5C 701.83,341.645 704.163,342.978 706.5,343.5C 708.018,345.514 708.685,347.514 708.5,349.5C 710.409,348.652 712.409,348.318 714.5,348.5C 725.207,357.51 735.873,366.51 746.5,375.5C 746.351,376.552 746.517,377.552 747,378.5C 750.109,379.941 752.609,382.108 754.5,385C 757.151,387.14 760.151,388.64 763.5,389.5C 776.525,400.197 789.525,410.863 802.5,421.5C 804.536,427.925 808.869,431.592 815.5,432.5C 821.155,436.823 826.488,441.49 831.5,446.5C 833.068,448.769 834.568,451.102 836,453.5C 836.333,453.167 836.667,452.833 837,452.5C 838.723,455.244 841.223,456.578 844.5,456.5C 876.753,482.579 908.586,509.246 940,536.5C 952.22,554.26 952.553,572.26 941,590.5C 910.998,626.666 880.832,662.666 850.5,698.5C 849.504,698.586 848.671,698.252 848,697.5C 846.587,699.652 845.754,701.986 845.5,704.5C 811.47,745.525 777.47,786.525 743.5,827.5C 742.178,827.67 741.011,827.337 740,826.5C 739.383,827.449 739.549,828.282 740.5,829C 739.552,829.483 738.552,829.649 737.5,829.5C 737.5,830.5 737.5,831.5 737.5,832.5C 735.567,832.729 733.9,833.562 732.5,835C 732.833,835.333 733.167,835.667 733.5,836C 732.027,836.71 731.36,837.876 731.5,839.5C 730.448,839.351 729.448,839.517 728.5,840C 729.337,841.011 729.67,842.178 729.5,843.5C 718.88,857.729 707.547,871.396 695.5,884.5C 694.5,884.5 693.5,884.5 692.5,884.5C 692.5,885.5 692.5,886.5 692.5,887.5C 691.5,887.5 690.5,887.5 689.5,887.5C 688.833,889.833 688.167,892.167 687.5,894.5C 679.365,905.8 670.032,915.967 659.5,925C 642.582,933.116 626.248,932.116 610.5,922C 553.269,873.926 495.935,826.092 438.5,778.5C 437.318,776.186 435.985,773.852 434.5,771.5C 430.841,770.508 428.508,768.174 427.5,764.5C 423.937,763.608 420.604,762.275 417.5,760.5C 405.202,750.87 393.202,740.87 381.5,730.5C 380.989,728.805 380.322,727.139 379.5,725.5C 378.914,725.709 378.414,726.043 378,726.5C 376.881,725.448 376.381,724.281 376.5,723C 375.551,722.383 374.718,722.549 374,723.5C 373.082,721.624 371.582,720.624 369.5,720.5C 362.91,716.247 356.91,711.247 351.5,705.5C 349.633,701.466 346.633,698.633 342.5,697C 343.535,695.493 343.368,693.993 342,692.5C 340.512,694.83 338.679,695.164 336.5,693.5C 308.183,670.514 280.183,647.18 252.5,623.5C 252.415,621.071 251.415,619.071 249.5,617.5C 247.328,616.795 245.328,615.795 243.5,614.5C 242.835,612.899 242.501,611.399 242.5,610C 241.328,609.647 240.162,609.813 239,610.5C 237.495,609.327 235.995,608.161 234.5,607C 239.53,607.195 239.863,605.529 235.5,602C 233.385,601.443 231.385,600.609 229.5,599.5C 228.378,600.63 227.044,601.297 225.5,601.5C 169.581,555.755 114.081,509.421 59,462.5C 48.3185,447.593 46.8185,431.926 54.5,415.5C 55.8037,413.041 57.6371,411.707 60,411.5C 61.4307,406.963 63.5974,402.963 66.5,399.5C 76.4519,385.939 87.1186,372.939 98.5,360.5C 101.562,359.732 103.228,357.732 103.5,354.5C 148.819,299.183 194.486,244.183 240.5,189.5C 243.621,188.712 245.288,186.712 245.5,183.5C 248.486,179.183 251.82,175.183 255.5,171.5C 258.315,170.676 260.482,169.009 262,166.5C 262.414,166.957 262.914,167.291 263.5,167.5C 265.405,165.155 266.571,162.488 267,159.5C 268,158.167 269,158.167 270,159.5C 269.577,157.613 269.744,155.613 270.5,153.5C 289.788,129.707 309.288,106.04 329,82.5C 345.992,66.8089 364.826,64.3089 385.5,75C 411.089,95.9469 436.422,117.114 461.5,138.5 Z"/></g>
<g><path style="opacity:1" fill="#ebcb12" d="M 461.5,138.5 C 470.151,145.154 478.484,152.154 486.5,159.5C 482.239,158.074 477.906,156.907 473.5,156C 473.833,155.667 474.167,155.333 474.5,155C 471.536,154.16 471.203,153.16 473.5,152C 469.867,151.18 466.867,149.347 464.5,146.5C 465.603,146.002 466.603,145.669 467.5,145.5C 465.291,144.937 463.791,143.604 463,141.5C 462.667,141.833 462.333,142.167 462,142.5C 461.51,141.207 461.343,139.873 461.5,138.5 Z"/></g>
<g><path style="opacity:1" fill="#dbbd19" d="M 270.5,153.5 C 269.744,155.613 269.577,157.613 270,159.5C 269,158.167 268,158.167 267,159.5C 266.571,162.488 265.405,165.155 263.5,167.5C 262.914,167.291 262.414,166.957 262,166.5C 260.482,169.009 258.315,170.676 255.5,171.5C 260.51,165.46 265.51,159.46 270.5,153.5 Z"/></g>
<g><path style="opacity:1" fill="#bca41c" d="M 245.5,183.5 C 245.288,186.712 243.621,188.712 240.5,189.5C 242.196,187.475 243.863,185.475 245.5,183.5 Z"/></g>
<g><path style="opacity:1" fill="#e7c712" d="M 697.5,334.5 C 703.191,339.197 708.858,343.863 714.5,348.5C 712.409,348.318 710.409,348.652 708.5,349.5C 708.685,347.514 708.018,345.514 706.5,343.5C 704.163,342.978 701.83,341.645 699.5,339.5C 698.914,339.709 698.414,340.043 698,340.5C 697.365,339.034 696.531,337.7 695.5,336.5C 695.846,335.304 696.346,335.304 697,336.5C 697.464,335.906 697.631,335.239 697.5,334.5 Z"/></g>
<g><path style="opacity:1" fill="#bca51e" d="M 103.5,354.5 C 103.228,357.732 101.562,359.732 98.5,360.5C 100.177,358.46 101.844,356.46 103.5,354.5 Z"/></g>
<g><path style="opacity:1" fill="#dabc1b" d="M 746.5,375.5 C 752.39,379.938 758.057,384.605 763.5,389.5C 760.151,388.64 757.151,387.14 754.5,385C 752.609,382.108 750.109,379.941 747,378.5C 746.517,377.552 746.351,376.552 746.5,375.5 Z"/></g>
<g><path style="opacity:1" fill="#ddc018" d="M 66.5,399.5 C 63.5974,402.963 61.4307,406.963 60,411.5C 57.6371,411.707 55.8037,413.041 54.5,415.5C 57.3845,409.289 61.3845,403.955 66.5,399.5 Z"/></g>
<g><path style="opacity:1" fill="#ddbf19" d="M 802.5,421.5 C 807.059,424.939 811.392,428.606 815.5,432.5C 808.869,431.592 804.536,427.925 802.5,421.5 Z"/></g>
<g><path style="opacity:1" fill="#dabd1a" d="M 831.5,446.5 C 836.124,449.457 840.457,452.791 844.5,456.5C 841.223,456.578 838.723,455.244 837,452.5C 836.667,452.833 836.333,453.167 836,453.5C 834.568,451.102 833.068,448.769 831.5,446.5 Z"/></g>
<g><path style="opacity:1" fill="#eac912" d="M 252.5,623.5 C 243.277,616.395 234.277,609.062 225.5,601.5C 227.044,601.297 228.378,600.63 229.5,599.5C 231.385,600.609 233.385,601.443 235.5,602C 239.863,605.529 239.53,607.195 234.5,607C 235.995,608.161 237.495,609.327 239,610.5C 240.162,609.813 241.328,609.647 242.5,610C 242.501,611.399 242.835,612.899 243.5,614.5C 245.328,615.795 247.328,616.795 249.5,617.5C 251.415,619.071 252.415,621.071 252.5,623.5 Z"/></g>
<g><path style="opacity:1" fill="#dabd18" d="M 351.5,705.5 C 345.917,702.253 340.917,698.253 336.5,693.5C 338.679,695.164 340.512,694.83 342,692.5C 343.368,693.993 343.535,695.493 342.5,697C 346.633,698.633 349.633,701.466 351.5,705.5 Z"/></g>
<g><path style="opacity:1" fill="#cdb21f" d="M 850.5,698.5 C 849.299,700.909 847.633,702.909 845.5,704.5C 845.754,701.986 846.587,699.652 848,697.5C 848.671,698.252 849.504,698.586 850.5,698.5 Z"/></g>
<g><path style="opacity:1" fill="#dabe1a" d="M 369.5,720.5 C 371.582,720.624 373.082,721.624 374,723.5C 374.718,722.549 375.551,722.383 376.5,723C 376.381,724.281 376.881,725.448 378,726.5C 378.414,726.043 378.914,725.709 379.5,725.5C 380.322,727.139 380.989,728.805 381.5,730.5C 377.122,727.641 373.122,724.308 369.5,720.5 Z"/></g>
<g><path style="opacity:1" fill="#e3c314" d="M 417.5,760.5 C 420.604,762.275 423.937,763.608 427.5,764.5C 428.508,768.174 430.841,770.508 434.5,771.5C 435.985,773.852 437.318,776.186 438.5,778.5C 431.274,772.727 424.274,766.727 417.5,760.5 Z"/></g>
<g><path style="opacity:1" fill="#dec019" d="M 743.5,827.5 C 739.177,833.155 734.51,838.488 729.5,843.5C 729.67,842.178 729.337,841.011 728.5,840C 729.448,839.517 730.448,839.351 731.5,839.5C 731.36,837.876 732.027,836.71 733.5,836C 733.167,835.667 732.833,835.333 732.5,835C 733.9,833.562 735.567,832.729 737.5,832.5C 737.5,831.5 737.5,830.5 737.5,829.5C 738.552,829.649 739.552,829.483 740.5,829C 739.549,828.282 739.383,827.449 740,826.5C 741.011,827.337 742.178,827.67 743.5,827.5 Z"/></g>
<g><path style="opacity:1" fill="#ceb520" d="M 695.5,884.5 C 693.206,888.127 690.54,891.461 687.5,894.5C 688.167,892.167 688.833,889.833 689.5,887.5C 690.5,887.5 691.5,887.5 692.5,887.5C 692.5,886.5 692.5,885.5 692.5,884.5C 693.5,884.5 694.5,884.5 695.5,884.5 Z"/></g>
</svg>
