<?xml version="1.0" encoding="UTF-8"?>
<!DOCTYPE svg PUBLIC "-//W3C//DTD SVG 1.1//EN" "http://www.w3.org/Graphics/SVG/1.1/DTD/svg11.dtd">
<svg xmlns="http://www.w3.org/2000/svg" version="1.1" width="1000px" height="1080px" style="shape-rendering:geometricPrecision; text-rendering:geometricPrecision; image-rendering:optimizeQuality; fill-rule:evenodd; clip-rule:evenodd">
<g><path style="opacity:1" fill="#222222" d="M -0.5,-0.5 C 332.833,-0.5 666.167,-0.5 999.5,-0.5C 999.5,359.5 999.5,719.5 999.5,1079.5C 666.167,1079.5 332.833,1079.5 -0.5,1079.5C -0.5,719.5 -0.5,359.5 -0.5,-0.5 Z"/></g>
<g><path style="opacity:1" fill="#fd0002" d="M 792.5,767.5 C 790.605,768.703 788.605,769.869 786.5,771C 786.833,771.333 787.167,771.667 787.5,772C 786.552,772.483 785.552,772.649 784.5,772.5C 784.762,773.978 784.429,775.311 783.5,776.5C 782.575,777.641 781.741,777.641 781,776.5C 779.991,778.025 779.491,779.692 779.5,781.5C 777.058,781.354 776.391,782.187 777.5,784C 774.625,785.255 773.625,787.089 774.5,789.5C 738.117,834.061 701.117,878.228 663.5,922C 661.922,923.094 660.255,923.928 658.5,924.5C 655.923,924.455 653.923,925.455 652.5,927.5C 639.109,932.307 626.109,931.141 613.5,924C 434.409,774.564 255.076,625.564 75.5,477C 66.5829,470.085 59.0829,461.918 53,452.5C 47.3356,437.788 48.6689,423.788 57,410.5C 146.656,302.54 236.323,194.54 326,86.5C 328.37,83.9614 330.87,81.6281 333.5,79.5C 335.921,78.1086 338.588,77.2752 341.5,77C 342.337,75.9887 342.67,74.8221 342.5,73.5C 344.179,73.7148 345.179,73.0481 345.5,71.5C 359.285,66.6363 372.618,67.803 385.5,75C 560.517,221.014 735.85,366.681 911.5,512C 921.965,520.797 932.132,529.963 942,539.5C 950.675,553.622 951.675,568.289 945,583.5C 894.874,645.418 844.041,706.751 792.5,767.5 Z"/></g>
<g><path style="opacity:1" fill="#dd1613" d="M 345.5,71.5 C 345.179,73.0481 344.179,73.7148 342.5,73.5C 342.67,74.8221 342.337,75.9887 341.5,77C 338.588,77.2752 335.921,78.1086 333.5,79.5C 336.678,75.6644 340.678,72.9977 345.5,71.5 Z"/></g>
<g><path style="opacity:1" fill="#e60f0f" d="M 792.5,767.5 C 786.848,775.149 780.848,782.482 774.5,789.5C 773.625,787.089 774.625,785.255 777.5,784C 776.391,782.187 777.058,781.354 779.5,781.5C 779.491,779.692 779.991,778.025 781,776.5C 781.741,777.641 782.575,777.641 783.5,776.5C 784.429,775.311 784.762,773.978 784.5,772.5C 785.552,772.649 786.552,772.483 787.5,772C 787.167,771.667 786.833,771.333 786.5,771C 788.605,769.869 790.605,768.703 792.5,767.5 Z"/></g>
<g><path style="opacity:1" fill="#c6201a" d="M 658.5,924.5 C 657.089,926.539 655.089,927.539 652.5,927.5C 653.923,925.455 655.923,924.455 658.5,924.5 Z"/></g>
</svg>
