<?xml version="1.0" encoding="UTF-8"?>
<!DOCTYPE svg PUBLIC "-//W3C//DTD SVG 1.1//EN" "http://www.w3.org/Graphics/SVG/1.1/DTD/svg11.dtd">
<svg xmlns="http://www.w3.org/2000/svg" version="1.1" width="455px" height="719px" style="shape-rendering:geometricPrecision; text-rendering:geometricPrecision; image-rendering:optimizeQuality; fill-rule:evenodd; clip-rule:evenodd">
<g><path style="opacity:1" fill="#3d3d3d" d="M 11.5,-0.5 C 155.167,-0.5 298.833,-0.5 442.5,-0.5C 447.011,1.1675 450.511,4.1675 453,8.5C 453.498,5.51838 453.665,2.51838 453.5,-0.5C 453.833,-0.5 454.167,-0.5 454.5,-0.5C 454.5,239.167 454.5,478.833 454.5,718.5C 454.167,718.5 453.833,718.5 453.5,718.5C 453.665,715.482 453.498,712.482 453,709.5C 450.511,713.832 447.011,716.832 442.5,718.5C 298.833,718.5 155.167,718.5 11.5,718.5C 5.83333,716.167 1.83333,712.167 -0.5,706.5C -0.5,474.833 -0.5,243.167 -0.5,11.5C 1.83333,5.83333 5.83333,1.83333 11.5,-0.5 Z"/></g>
<g><path style="opacity:1" fill="#1c7104" d="M 27.5,13.5 C 160.834,13.3333 294.167,13.5 427.5,14C 432.333,16.1667 435.833,19.6667 438,24.5C 438.667,245.5 438.667,466.5 438,687.5C 435.833,692.333 432.333,695.833 427.5,698C 294.167,698.667 160.833,698.667 27.5,698C 22.6667,695.833 19.1667,692.333 17,687.5C 16.3333,466.5 16.3333,245.5 17,24.5C 19.3566,19.6455 22.8566,15.9788 27.5,13.5 Z"/></g>
<g><path style="opacity:1" fill="#29800d" d="M 21.5,24.5 C 158.833,24.5 296.167,24.5 433.5,24.5C 433.5,246.833 433.5,469.167 433.5,691.5C 296.167,691.5 158.833,691.5 21.5,691.5C 21.5,469.167 21.5,246.833 21.5,24.5 Z"/></g>
<g><path style="opacity:1" fill="#558808" d="M 427.5,156.5 C 427.5,162.5 427.5,168.5 427.5,174.5C 371.833,174.5 316.167,174.5 260.5,174.5C 265.572,169.335 269.905,163.668 273.5,157.5C 324.762,156.505 376.095,156.171 427.5,156.5 Z"/></g>
<g><path style="opacity:1" fill="#558808" d="M 26.5,156.5 C 77.9051,156.171 129.238,156.505 180.5,157.5C 184.45,163.451 188.783,169.118 193.5,174.5C 137.833,174.5 82.1667,174.5 26.5,174.5C 26.5,168.5 26.5,162.5 26.5,156.5 Z"/></g>
<g><path style="opacity:1" fill="#196e05" d="M 178.5,146.5 C 210.518,145.841 242.184,146.507 273.5,148.5C 273.5,149.167 273.5,149.833 273.5,150.5C 272.323,152.679 271.323,155.013 270.5,157.5C 241.24,156.509 211.907,156.175 182.5,156.5C 180.971,153.246 179.638,149.913 178.5,146.5 Z"/></g>
<g><path style="opacity:1" fill="#669160" d="M 178.5,146.5 C 178.5,146.167 178.5,145.833 178.5,145.5C 210.5,145.5 242.5,145.5 274.5,145.5C 274.737,146.791 274.404,147.791 273.5,148.5C 242.184,146.507 210.518,145.841 178.5,146.5 Z"/></g>
<g><path style="opacity:1" fill="#649160" d="M 102.5,145.5 C 102.833,145.5 103.167,145.5 103.5,145.5C 128.19,144.843 152.523,145.51 176.5,147.5C 151.736,146.842 127.069,146.176 102.5,145.5 Z"/></g>
<g><path style="opacity:1" fill="#fbfcfa" d="M 104.5,143.5 C 186.167,144.167 267.833,144.833 349.5,145.5C 325.164,145.333 300.831,145.5 276.5,146C 275.645,148.436 274.979,150.936 274.5,153.5C 273.596,152.791 273.263,151.791 273.5,150.5C 273.5,149.833 273.5,149.167 273.5,148.5C 274.404,147.791 274.737,146.791 274.5,145.5C 242.5,145.5 210.5,145.5 178.5,145.5C 177.833,146.167 177.167,146.833 176.5,147.5C 152.523,145.51 128.19,144.843 103.5,145.5C 103.328,144.508 103.662,143.842 104.5,143.5 Z"/></g>
<g><path style="opacity:1" fill="#2d7021" d="M 104.5,66.5 C 104.833,66.5 105.167,66.5 105.5,66.5C 105.5,72.5 105.5,78.5 105.5,84.5C 105.5,90.5 105.5,96.5 105.5,102.5C 105.5,108.5 105.5,114.5 105.5,120.5C 105.5,126.5 105.5,132.5 105.5,138.5C 105.5,139.833 105.5,141.167 105.5,142.5C 186.167,142.5 266.833,142.5 347.5,142.5C 347.5,141.167 347.5,139.833 347.5,138.5C 347.833,138.5 348.167,138.5 348.5,138.5C 348.5,140.167 348.5,141.833 348.5,143.5C 267.167,143.5 185.833,143.5 104.5,143.5C 104.5,117.833 104.5,92.1667 104.5,66.5 Z"/></g>
<g><path style="opacity:1" fill="#1d700a" d="M 351.5,138.5 C 376.833,138.5 402.167,138.5 427.5,138.5C 427.5,144.5 427.5,150.5 427.5,156.5C 376.095,156.171 324.762,156.505 273.5,157.5C 273.833,156.167 274.167,154.833 274.5,153.5C 274.979,150.936 275.645,148.436 276.5,146C 300.831,145.5 325.164,145.333 349.5,145.5C 349.833,145.5 350.167,145.5 350.5,145.5C 351.468,143.393 351.802,141.059 351.5,138.5 Z"/></g>
<g><path style="opacity:1" fill="#196e04" d="M 26.5,138.5 C 51.5,138.5 76.5,138.5 101.5,138.5C 101.198,141.059 101.532,143.393 102.5,145.5C 127.069,146.176 151.736,146.842 176.5,147.5C 177.833,150.833 179.167,154.167 180.5,157.5C 129.238,156.505 77.9051,156.171 26.5,156.5C 26.5,150.5 26.5,144.5 26.5,138.5 Z"/></g>
<g><path style="opacity:1" fill="#1c7004" d="M 105.5,138.5 C 186.167,138.5 266.833,138.5 347.5,138.5C 347.5,139.833 347.5,141.167 347.5,142.5C 266.833,142.5 186.167,142.5 105.5,142.5C 105.5,141.167 105.5,139.833 105.5,138.5 Z"/></g>
<g><path style="opacity:1" fill="#558808" d="M 351.5,120.5 C 376.833,120.5 402.167,120.5 427.5,120.5C 427.5,126.5 427.5,132.5 427.5,138.5C 402.167,138.5 376.833,138.5 351.5,138.5C 351.5,132.5 351.5,126.5 351.5,120.5 Z"/></g>
<g><path style="opacity:1" fill="#558808" d="M 105.5,120.5 C 186.5,120.5 267.5,120.5 348.5,120.5C 348.5,126.5 348.5,132.5 348.5,138.5C 348.167,138.5 347.833,138.5 347.5,138.5C 266.833,138.5 186.167,138.5 105.5,138.5C 105.5,132.5 105.5,126.5 105.5,120.5 Z"/></g>
<g><path style="opacity:1" fill="#558808" d="M 26.5,120.5 C 51.5,120.5 76.5,120.5 101.5,120.5C 101.5,126.5 101.5,132.5 101.5,138.5C 76.5,138.5 51.5,138.5 26.5,138.5C 26.5,132.5 26.5,126.5 26.5,120.5 Z"/></g>
<g><path style="opacity:1" fill="#196e04" d="M 351.5,102.5 C 376.833,102.5 402.167,102.5 427.5,102.5C 427.5,108.5 427.5,114.5 427.5,120.5C 402.167,120.5 376.833,120.5 351.5,120.5C 351.5,114.5 351.5,108.5 351.5,102.5 Z"/></g>
<g><path style="opacity:1" fill="#1a6f04" d="M 105.5,102.5 C 144.167,102.5 182.833,102.5 221.5,102.5C 225.167,106.5 228.833,106.5 232.5,102.5C 271.167,102.5 309.833,102.5 348.5,102.5C 348.5,108.5 348.5,114.5 348.5,120.5C 267.5,120.5 186.5,120.5 105.5,120.5C 105.5,114.5 105.5,108.5 105.5,102.5 Z"/></g>
<g><path style="opacity:1" fill="#196f04" d="M 26.5,102.5 C 51.5,102.5 76.5,102.5 101.5,102.5C 101.5,108.5 101.5,114.5 101.5,120.5C 76.5,120.5 51.5,120.5 26.5,120.5C 26.5,114.5 26.5,108.5 26.5,102.5 Z"/></g>
<g><path style="opacity:1" fill="#eff2ea" d="M 232.5,102.5 C 228.833,106.5 225.167,106.5 221.5,102.5C 220.52,98.1594 222.187,95.8261 226.5,95.5C 230.65,95.9837 232.65,98.317 232.5,102.5 Z"/></g>
<g><path style="opacity:1" fill="#558808" d="M 105.5,84.5 C 186.5,84.5 267.5,84.5 348.5,84.5C 348.5,90.5 348.5,96.5 348.5,102.5C 309.833,102.5 271.167,102.5 232.5,102.5C 232.65,98.317 230.65,95.9837 226.5,95.5C 222.187,95.8261 220.52,98.1594 221.5,102.5C 182.833,102.5 144.167,102.5 105.5,102.5C 105.5,96.5 105.5,90.5 105.5,84.5 Z"/></g>
<g><path style="opacity:1" fill="#558808" d="M 26.5,84.5 C 51.5,84.5 76.5,84.5 101.5,84.5C 101.5,90.5 101.5,96.5 101.5,102.5C 76.5,102.5 51.5,102.5 26.5,102.5C 26.5,96.5 26.5,90.5 26.5,84.5 Z"/></g>
<g><path style="opacity:1" fill="#558808" d="M 351.5,84.5 C 376.833,84.5 402.167,84.5 427.5,84.5C 427.5,90.5 427.5,96.5 427.5,102.5C 402.167,102.5 376.833,102.5 351.5,102.5C 351.5,96.5 351.5,90.5 351.5,84.5 Z"/></g>
<g><path style="opacity:1" fill="#b5ceac" d="M 417.5,30.5 C 421.5,30.5 425.5,30.5 429.5,30.5C 429.833,249.334 429.5,468.001 428.5,686.5C 428.5,685.833 428.5,685.167 428.5,684.5C 428.5,576.5 428.5,468.5 428.5,360.5C 428.5,359.5 428.5,358.5 428.5,357.5C 382.167,357.5 335.833,357.5 289.5,357.5C 289.5,357.167 289.5,356.833 289.5,356.5C 335.5,356.5 381.5,356.5 427.5,356.5C 427.5,350.167 427.5,343.833 427.5,337.5C 427.5,331.5 427.5,325.5 427.5,319.5C 427.5,313.5 427.5,307.5 427.5,301.5C 427.5,295.5 427.5,289.5 427.5,283.5C 427.5,277.5 427.5,271.5 427.5,265.5C 427.5,259.5 427.5,253.5 427.5,247.5C 427.5,241.5 427.5,235.5 427.5,229.5C 427.5,223.5 427.5,217.5 427.5,211.5C 427.5,211.167 427.5,210.833 427.5,210.5C 427.5,204.833 427.5,199.167 427.5,193.5C 427.5,187.167 427.5,180.833 427.5,174.5C 427.5,168.5 427.5,162.5 427.5,156.5C 427.5,150.5 427.5,144.5 427.5,138.5C 427.5,132.5 427.5,126.5 427.5,120.5C 427.5,114.5 427.5,108.5 427.5,102.5C 427.5,96.5 427.5,90.5 427.5,84.5C 427.5,78.5 427.5,72.5 427.5,66.5C 427.5,60.1667 427.5,53.8333 427.5,47.5C 427.5,45.5 427.5,43.5 427.5,41.5C 421.67,41.2546 418.337,38.2546 417.5,32.5C 395.5,32.5 373.5,32.5 351.5,32.5C 351.167,32.5 350.833,32.5 350.5,32.5C 372.833,31.8333 395.167,31.1667 417.5,30.5 Z"/></g>
<g><path style="opacity:1" fill="#1e7009" d="M 105.5,66.5 C 124.5,66.5 143.5,66.5 162.5,66.5C 162.5,68.5 162.5,70.5 162.5,72.5C 205.167,72.5 247.833,72.5 290.5,72.5C 290.5,70.5 290.5,68.5 290.5,66.5C 309.833,66.5 329.167,66.5 348.5,66.5C 348.5,72.5 348.5,78.5 348.5,84.5C 267.5,84.5 186.5,84.5 105.5,84.5C 105.5,78.5 105.5,72.5 105.5,66.5 Z"/></g>
<g><path style="opacity:1" fill="#1a6f04" d="M 26.5,66.5 C 51.5,66.5 76.5,66.5 101.5,66.5C 101.5,72.5 101.5,78.5 101.5,84.5C 76.5,84.5 51.5,84.5 26.5,84.5C 26.5,78.5 26.5,72.5 26.5,66.5 Z"/></g>
<g><path style="opacity:1" fill="#1a6f04" d="M 427.5,66.5 C 427.5,72.5 427.5,78.5 427.5,84.5C 402.167,84.5 376.833,84.5 351.5,84.5C 351.5,78.5 351.5,72.5 351.5,66.5C 376.833,66.5 402.167,66.5 427.5,66.5 Z"/></g>
<g><path style="opacity:1" fill="#4e8425" d="M 350.5,32.5 C 350.833,32.5 351.167,32.5 351.5,32.5C 351.5,37.5 351.5,42.5 351.5,47.5C 376.833,47.5 402.167,47.5 427.5,47.5C 427.5,53.8333 427.5,60.1667 427.5,66.5C 402.167,66.5 376.833,66.5 351.5,66.5C 351.5,72.5 351.5,78.5 351.5,84.5C 351.5,90.5 351.5,96.5 351.5,102.5C 351.5,108.5 351.5,114.5 351.5,120.5C 351.5,126.5 351.5,132.5 351.5,138.5C 351.802,141.059 351.468,143.393 350.5,145.5C 350.5,107.833 350.5,70.1667 350.5,32.5 Z"/></g>
<g><path style="opacity:1" fill="#457f11" d="M 162.5,47.5 C 162.5,53.8333 162.5,60.1667 162.5,66.5C 143.5,66.5 124.5,66.5 105.5,66.5C 105.167,66.5 104.833,66.5 104.5,66.5C 104.5,60.5 104.5,54.5 104.5,48.5C 104.833,48.5 105.167,48.5 105.5,48.5C 124.326,47.503 143.326,47.1697 162.5,47.5 Z"/></g>
<g><path style="opacity:1" fill="#457b17" d="M 26.5,47.5 C 51.6722,47.169 76.6722,47.5023 101.5,48.5C 101.833,48.5 102.167,48.5 102.5,48.5C 102.5,80.8333 102.5,113.167 102.5,145.5C 101.532,143.393 101.198,141.059 101.5,138.5C 101.5,132.5 101.5,126.5 101.5,120.5C 101.5,114.5 101.5,108.5 101.5,102.5C 101.5,96.5 101.5,90.5 101.5,84.5C 101.5,78.5 101.5,72.5 101.5,66.5C 76.5,66.5 51.5,66.5 26.5,66.5C 26.5,60.1667 26.5,53.8333 26.5,47.5 Z"/></g>
<g><path style="opacity:1" fill="#558807" d="M 351.5,48.5 C 376.5,48.5 401.5,48.5 426.5,48.5C 426.5,54.1667 426.5,59.8333 426.5,65.5C 401.5,65.5 376.5,65.5 351.5,65.5C 351.5,59.8333 351.5,54.1667 351.5,48.5 Z"/></g>
<g><path style="opacity:1" fill="#558807" d="M 105.5,48.5 C 124.167,48.5 142.833,48.5 161.5,48.5C 161.5,54.1667 161.5,59.8333 161.5,65.5C 142.833,65.5 124.167,65.5 105.5,65.5C 105.5,59.8333 105.5,54.1667 105.5,48.5 Z"/></g>
<g><path style="opacity:1" fill="#558807" d="M 101.5,48.5 C 101.5,54.1667 101.5,59.8333 101.5,65.5C 76.8333,65.5 52.1667,65.5 27.5,65.5C 27.5,59.8333 27.5,54.1667 27.5,48.5C 52.1667,48.5 76.8333,48.5 101.5,48.5 Z"/></g>
<g><path style="opacity:1" fill="#b6c9a9" d="M 37.5,30.5 C 59.1667,31.1667 80.8333,31.8333 102.5,32.5C 80.5,32.5 58.5,32.5 36.5,32.5C 35.7551,38.2403 32.4217,41.2403 26.5,41.5C 26.5,43.5 26.5,45.5 26.5,47.5C 26.5,53.8333 26.5,60.1667 26.5,66.5C 26.5,72.5 26.5,78.5 26.5,84.5C 26.5,90.5 26.5,96.5 26.5,102.5C 26.5,108.5 26.5,114.5 26.5,120.5C 26.5,126.5 26.5,132.5 26.5,138.5C 26.5,144.5 26.5,150.5 26.5,156.5C 26.5,162.5 26.5,168.5 26.5,174.5C 26.5,180.833 26.5,187.167 26.5,193.5C 26.5,199.5 26.5,205.5 26.5,211.5C 26.5,217.5 26.5,223.5 26.5,229.5C 26.5,235.5 26.5,241.5 26.5,247.5C 26.5,253.5 26.5,259.5 26.5,265.5C 26.5,271.5 26.5,277.5 26.5,283.5C 26.5,289.5 26.5,295.5 26.5,301.5C 26.5,307.5 26.5,313.5 26.5,319.5C 26.5,325.5 26.5,331.5 26.5,337.5C 26.5,343.833 26.5,350.167 26.5,356.5C 26.5,356.833 26.5,357.167 26.5,357.5C 25.9569,357.56 25.6236,357.893 25.5,358.5C 71.3315,359.167 116.998,359.833 162.5,360.5C 117.167,360.5 71.8333,360.5 26.5,360.5C 26.5,365.167 26.5,369.833 26.5,374.5C 26.5,380.5 26.5,386.5 26.5,392.5C 26.5,398.5 26.5,404.5 26.5,410.5C 26.5,416.5 26.5,422.5 26.5,428.5C 26.5,434.5 26.5,440.5 26.5,446.5C 26.5,452.5 26.5,458.5 26.5,464.5C 26.5,470.5 26.5,476.5 26.5,482.5C 26.5,488.833 26.5,495.167 26.5,501.5C 26.5,507.5 26.5,513.5 26.5,519.5C 26.5,525.5 26.5,531.5 26.5,537.5C 26.5,543.5 26.5,549.5 26.5,555.5C 26.5,561.5 26.5,567.5 26.5,573.5C 26.5,579.5 26.5,585.5 26.5,591.5C 26.5,597.5 26.5,603.5 26.5,609.5C 26.5,615.5 26.5,621.5 26.5,627.5C 26.5,633.5 26.5,639.5 26.5,645.5C 26.5,651.833 26.5,658.167 26.5,664.5C 26.5,668.167 26.5,671.833 26.5,675.5C 32.2968,675.969 35.9635,678.969 37.5,684.5C 36.8333,684.5 36.1667,684.5 35.5,684.5C 34.5642,679.569 31.5642,677.235 26.5,677.5C 26.5,679.833 26.5,682.167 26.5,684.5C 25.6618,684.842 25.3284,685.508 25.5,686.5C 24.5003,468.001 24.1669,249.334 24.5,30.5C 28.8333,30.5 33.1667,30.5 37.5,30.5 Z"/></g>
<g><path style="opacity:1" fill="#dfe9d7" d="M 102.5,32.5 C 103.167,32.5 103.833,32.5 104.5,32.5C 104.5,37.8333 104.5,43.1667 104.5,48.5C 104.5,54.5 104.5,60.5 104.5,66.5C 104.5,92.1667 104.5,117.833 104.5,143.5C 103.662,143.842 103.328,144.508 103.5,145.5C 103.167,145.5 102.833,145.5 102.5,145.5C 102.5,113.167 102.5,80.8333 102.5,48.5C 102.5,43.1667 102.5,37.8333 102.5,32.5 Z"/></g>
<g><path style="opacity:1" fill="#19690c" d="M 419.5,32.5 C 422.167,32.5 424.833,32.5 427.5,32.5C 427.5,34.8333 427.5,37.1667 427.5,39.5C 422.964,39.2973 420.298,36.964 419.5,32.5 Z"/></g>
<g><path style="opacity:1" fill="#1e6c0f" d="M 26.5,32.5 C 29.5719,32.1826 32.5719,32.5159 35.5,33.5C 34.0058,37.7478 31.0058,39.7478 26.5,39.5C 26.5,37.1667 26.5,34.8333 26.5,32.5 Z"/></g>
<g><path style="opacity:1" fill="#196e05" d="M 351.5,32.5 C 373.5,32.5 395.5,32.5 417.5,32.5C 418.337,38.2546 421.67,41.2546 427.5,41.5C 427.5,43.5 427.5,45.5 427.5,47.5C 402.167,47.5 376.833,47.5 351.5,47.5C 351.5,42.5 351.5,37.5 351.5,32.5 Z"/></g>
<g><path style="opacity:1" fill="#196e05" d="M 104.5,32.5 C 123.833,32.5 143.167,32.5 162.5,32.5C 162.5,37.5 162.5,42.5 162.5,47.5C 143.326,47.1697 124.326,47.503 105.5,48.5C 105.167,48.5 104.833,48.5 104.5,48.5C 104.5,43.1667 104.5,37.8333 104.5,32.5 Z"/></g>
<g><path style="opacity:1" fill="#1a6e06" d="M 102.5,32.5 C 102.5,37.8333 102.5,43.1667 102.5,48.5C 102.167,48.5 101.833,48.5 101.5,48.5C 76.6722,47.5023 51.6722,47.169 26.5,47.5C 26.5,45.5 26.5,43.5 26.5,41.5C 32.4217,41.2403 35.7551,38.2403 36.5,32.5C 58.5,32.5 80.5,32.5 102.5,32.5 Z"/></g>
<g><path style="opacity:1" fill="#d3e0cf" d="M 37.5,30.5 C 164.167,30.5 290.833,30.5 417.5,30.5C 395.167,31.1667 372.833,31.8333 350.5,32.5C 350.5,70.1667 350.5,107.833 350.5,145.5C 350.167,145.5 349.833,145.5 349.5,145.5C 267.833,144.833 186.167,144.167 104.5,143.5C 185.833,143.5 267.167,143.5 348.5,143.5C 348.5,141.833 348.5,140.167 348.5,138.5C 348.5,132.5 348.5,126.5 348.5,120.5C 348.5,114.5 348.5,108.5 348.5,102.5C 348.5,96.5 348.5,90.5 348.5,84.5C 348.5,78.5 348.5,72.5 348.5,66.5C 348.5,60.5 348.5,54.5 348.5,48.5C 348.5,43.1667 348.5,37.8333 348.5,32.5C 329.167,32.5 309.833,32.5 290.5,32.5C 290.5,37.8333 290.5,43.1667 290.5,48.5C 290.5,54.5 290.5,60.5 290.5,66.5C 290.5,68.5 290.5,70.5 290.5,72.5C 247.833,72.5 205.167,72.5 162.5,72.5C 162.5,70.5 162.5,68.5 162.5,66.5C 162.5,60.1667 162.5,53.8333 162.5,47.5C 162.5,42.5 162.5,37.5 162.5,32.5C 143.167,32.5 123.833,32.5 104.5,32.5C 103.833,32.5 103.167,32.5 102.5,32.5C 80.8333,31.8333 59.1667,31.1667 37.5,30.5 Z"/></g>
<g><path style="opacity:1" fill="#286c1b" d="M 287.5,32.5 C 288.495,44.989 288.829,57.6557 288.5,70.5C 247.5,70.5 206.5,70.5 165.5,70.5C 165.5,69.1667 165.5,67.8333 165.5,66.5C 165.833,66.5 166.167,66.5 166.5,66.5C 166.5,67.5 166.5,68.5 166.5,69.5C 206.5,69.5 246.5,69.5 286.5,69.5C 286.5,68.5 286.5,67.5 286.5,66.5C 287.49,60.3554 287.823,54.0221 287.5,47.5C 287.5,42.5 287.5,37.5 287.5,32.5 Z"/></g>
<g><path style="opacity:1" fill="#166e04" d="M 166.5,66.5 C 206.5,66.5 246.5,66.5 286.5,66.5C 286.5,67.5 286.5,68.5 286.5,69.5C 246.5,69.5 206.5,69.5 166.5,69.5C 166.5,68.5 166.5,67.5 166.5,66.5 Z"/></g>
<g><path style="opacity:1" fill="#417e09" d="M 287.5,47.5 C 287.823,54.0221 287.49,60.3554 286.5,66.5C 246.5,66.5 206.5,66.5 166.5,66.5C 166.167,66.5 165.833,66.5 165.5,66.5C 165.5,60.5 165.5,54.5 165.5,48.5C 165.833,48.5 166.167,48.5 166.5,48.5C 206.663,47.5014 246.997,47.1681 287.5,47.5 Z"/></g>
<g><path style="opacity:1" fill="#558809" d="M 290.5,48.5 C 309.833,48.5 329.167,48.5 348.5,48.5C 348.5,54.5 348.5,60.5 348.5,66.5C 329.167,66.5 309.833,66.5 290.5,66.5C 290.5,60.5 290.5,54.5 290.5,48.5 Z"/></g>
<g><path style="opacity:1" fill="#558807" d="M 166.5,48.5 C 206.5,48.5 246.5,48.5 286.5,48.5C 286.5,54.1667 286.5,59.8333 286.5,65.5C 246.5,65.5 206.5,65.5 166.5,65.5C 166.5,59.8333 166.5,54.1667 166.5,48.5 Z"/></g>
<g><path style="opacity:1" fill="#1c6f06" d="M 348.5,48.5 C 329.167,48.5 309.833,48.5 290.5,48.5C 290.5,43.1667 290.5,37.8333 290.5,32.5C 309.833,32.5 329.167,32.5 348.5,32.5C 348.5,37.8333 348.5,43.1667 348.5,48.5 Z"/></g>
<g><path style="opacity:1" fill="#196f05" d="M 287.5,32.5 C 287.5,37.5 287.5,42.5 287.5,47.5C 246.997,47.1681 206.663,47.5014 166.5,48.5C 166.167,48.5 165.833,48.5 165.5,48.5C 165.5,43.1667 165.5,37.8333 165.5,32.5C 206.167,32.5 246.833,32.5 287.5,32.5 Z"/></g>
<g><path style="opacity:1" fill="#1c7005" d="M 26.5,174.5 C 82.1667,174.5 137.833,174.5 193.5,174.5C 215.74,189.105 238.074,189.105 260.5,174.5C 316.167,174.5 371.833,174.5 427.5,174.5C 427.5,180.833 427.5,187.167 427.5,193.5C 294.167,193.5 160.833,193.5 27.5,193.5C 27.1667,193.5 26.8333,193.5 26.5,193.5C 26.5,187.167 26.5,180.833 26.5,174.5 Z"/></g>
<g><path style="opacity:1" fill="#dbe6d3" d="M 178.5,145.5 C 178.5,145.833 178.5,146.167 178.5,146.5C 179.638,149.913 180.971,153.246 182.5,156.5C 186.063,164.064 191.396,170.064 198.5,174.5C 206.391,180.464 215.391,183.464 225.5,183.5C 235.938,183.475 245.605,180.808 254.5,175.5C 261.604,171.064 266.937,165.064 270.5,157.5C 271.323,155.013 272.323,152.679 273.5,150.5C 273.263,151.791 273.596,152.791 274.5,153.5C 274.167,154.833 273.833,156.167 273.5,157.5C 269.905,163.668 265.572,169.335 260.5,174.5C 238.074,189.105 215.74,189.105 193.5,174.5C 188.783,169.118 184.45,163.451 180.5,157.5C 179.167,154.167 177.833,150.833 176.5,147.5C 177.167,146.833 177.833,146.167 178.5,145.5 Z"/></g>
<g><path style="opacity:1" fill="#20700b" d="M 198.5,174.5 C 217.341,174.17 236.007,174.503 254.5,175.5C 245.605,180.808 235.938,183.475 225.5,183.5C 215.391,183.464 206.391,180.464 198.5,174.5 Z"/></g>
<g><path style="opacity:1" fill="#55880a" d="M 182.5,156.5 C 211.907,156.175 241.24,156.509 270.5,157.5C 266.937,165.064 261.604,171.064 254.5,175.5C 236.007,174.503 217.341,174.17 198.5,174.5C 191.396,170.064 186.063,164.064 182.5,156.5 Z"/></g>
<g><path style="opacity:1" fill="#558808" d="M 27.5,193.5 C 160.833,193.5 294.167,193.5 427.5,193.5C 427.5,199.167 427.5,204.833 427.5,210.5C 294.167,210.5 160.833,210.5 27.5,210.5C 27.5,204.833 27.5,199.167 27.5,193.5 Z"/></g>
<g><path style="opacity:1" fill="#3e7e08" d="M 26.5,193.5 C 26.8333,193.5 27.1667,193.5 27.5,193.5C 27.5,199.167 27.5,204.833 27.5,210.5C 160.833,210.5 294.167,210.5 427.5,210.5C 427.5,210.833 427.5,211.167 427.5,211.5C 293.833,211.5 160.167,211.5 26.5,211.5C 26.5,205.5 26.5,199.5 26.5,193.5 Z"/></g>
<g><path style="opacity:1" fill="#1b7004" d="M 26.5,211.5 C 160.167,211.5 293.833,211.5 427.5,211.5C 427.5,217.5 427.5,223.5 427.5,229.5C 427.167,229.5 426.833,229.5 426.5,229.5C 293.5,229.5 160.5,229.5 27.5,229.5C 27.1667,229.5 26.8333,229.5 26.5,229.5C 26.5,223.5 26.5,217.5 26.5,211.5 Z"/></g>
<g><path style="opacity:1" fill="#488209" d="M 26.5,229.5 C 26.8333,229.5 27.1667,229.5 27.5,229.5C 27.5,235.167 27.5,240.833 27.5,246.5C 160.5,246.5 293.5,246.5 426.5,246.5C 426.5,240.833 426.5,235.167 426.5,229.5C 426.833,229.5 427.167,229.5 427.5,229.5C 427.5,235.5 427.5,241.5 427.5,247.5C 293.833,247.5 160.167,247.5 26.5,247.5C 26.5,241.5 26.5,235.5 26.5,229.5 Z"/></g>
<g><path style="opacity:1" fill="#558807" d="M 27.5,229.5 C 160.5,229.5 293.5,229.5 426.5,229.5C 426.5,235.167 426.5,240.833 426.5,246.5C 293.5,246.5 160.5,246.5 27.5,246.5C 27.5,240.833 27.5,235.167 27.5,229.5 Z"/></g>
<g><path style="opacity:1" fill="#1a6f05" d="M 26.5,247.5 C 160.167,247.5 293.833,247.5 427.5,247.5C 427.5,253.5 427.5,259.5 427.5,265.5C 293.833,265.5 160.167,265.5 26.5,265.5C 26.5,259.5 26.5,253.5 26.5,247.5 Z"/></g>
<g><path style="opacity:1" fill="#548807" d="M 26.5,265.5 C 160.167,265.5 293.833,265.5 427.5,265.5C 427.5,271.5 427.5,277.5 427.5,283.5C 293.833,283.5 160.167,283.5 26.5,283.5C 26.5,277.5 26.5,271.5 26.5,265.5 Z"/></g>
<g><path style="opacity:1" fill="#1b6f05" d="M 26.5,283.5 C 160.167,283.5 293.833,283.5 427.5,283.5C 427.5,289.5 427.5,295.5 427.5,301.5C 370.167,301.5 312.833,301.5 255.5,301.5C 235.818,292.254 216.151,292.254 196.5,301.5C 139.833,301.5 83.1667,301.5 26.5,301.5C 26.5,295.5 26.5,289.5 26.5,283.5 Z"/></g>
<g><path style="opacity:1" fill="#558808" d="M 26.5,301.5 C 83.1667,301.5 139.833,301.5 196.5,301.5C 188.529,306.326 181.529,312.326 175.5,319.5C 125.833,319.5 76.1667,319.5 26.5,319.5C 26.5,313.5 26.5,307.5 26.5,301.5 Z"/></g>
<g><path style="opacity:1" fill="#558808" d="M 255.5,301.5 C 312.833,301.5 370.167,301.5 427.5,301.5C 427.5,307.5 427.5,313.5 427.5,319.5C 377.331,319.168 327.331,319.501 277.5,320.5C 271.372,312.701 264.039,306.367 255.5,301.5 Z"/></g>
<g><path style="opacity:1" fill="#1b6f05" d="M 26.5,319.5 C 76.1667,319.5 125.833,319.5 175.5,319.5C 171.629,325.245 168.296,331.245 165.5,337.5C 119.167,337.5 72.8333,337.5 26.5,337.5C 26.5,331.5 26.5,325.5 26.5,319.5 Z"/></g>
<g><path style="opacity:1" fill="#1b6f05" d="M 427.5,319.5 C 427.5,325.5 427.5,331.5 427.5,337.5C 380.5,337.5 333.5,337.5 286.5,337.5C 283.755,331.675 280.755,326.008 277.5,320.5C 327.331,319.501 377.331,319.168 427.5,319.5 Z"/></g>
<g><path style="opacity:1" fill="#568909" d="M 165.5,338.5 C 164.626,341.789 163.959,345.123 163.5,348.5C 163.5,349.167 163.5,349.833 163.5,350.5C 162.549,351.919 162.216,353.585 162.5,355.5C 117.5,355.5 72.5,355.5 27.5,355.5C 27.5,349.833 27.5,344.167 27.5,338.5C 73.5,338.5 119.5,338.5 165.5,338.5 Z"/></g>
<g><path style="opacity:1" fill="#538708" d="M 286.5,337.5 C 333.5,337.5 380.5,337.5 427.5,337.5C 427.5,343.833 427.5,350.167 427.5,356.5C 381.5,356.5 335.5,356.5 289.5,356.5C 289.402,350.014 288.402,343.68 286.5,337.5 Z"/></g>
<g><path style="opacity:1" fill="#538709" d="M 168.5,337.5 C 206.833,337.5 245.167,337.5 283.5,337.5C 285.876,342.106 286.876,347.106 286.5,352.5C 286.5,353.833 286.5,355.167 286.5,356.5C 268.167,356.5 249.833,356.5 231.5,356.5C 228.711,353.134 225.711,352.801 222.5,355.5C 203.576,356.487 184.576,356.82 165.5,356.5C 165.5,354.5 165.5,352.5 165.5,350.5C 165.867,345.992 166.867,341.659 168.5,337.5 Z"/></g>
<g><path style="opacity:1" fill="#fbfcfa" d="M 163.5,348.5 C 164.338,348.842 164.672,349.508 164.5,350.5C 164.5,352.833 164.5,355.167 164.5,357.5C 184.196,358.154 203.529,357.488 222.5,355.5C 225.711,352.801 228.711,353.134 231.5,356.5C 249.993,357.497 268.659,357.83 287.5,357.5C 287.5,358.167 287.5,358.833 287.5,359.5C 268.659,359.17 249.993,359.503 231.5,360.5C 228.167,364.5 224.833,364.5 221.5,360.5C 202.5,359.167 183.5,359.167 164.5,360.5C 163.833,360.5 163.167,360.5 162.5,360.5C 116.998,359.833 71.3315,359.167 25.5,358.5C 25.6236,357.893 25.9569,357.56 26.5,357.5C 72.1667,357.5 117.833,357.5 163.5,357.5C 163.5,355.167 163.5,352.833 163.5,350.5C 163.5,349.833 163.5,349.167 163.5,348.5 Z"/></g>
<g><path style="opacity:1" fill="#367802" d="M 26.5,337.5 C 72.8333,337.5 119.167,337.5 165.5,337.5C 165.5,337.833 165.5,338.167 165.5,338.5C 119.5,338.5 73.5,338.5 27.5,338.5C 27.5,344.167 27.5,349.833 27.5,355.5C 72.5,355.5 117.5,355.5 162.5,355.5C 117.336,356.499 72.0031,356.832 26.5,356.5C 26.5,350.167 26.5,343.833 26.5,337.5 Z"/></g>
<g><path style="opacity:1" fill="#6f976b" d="M 163.5,350.5 C 163.5,352.833 163.5,355.167 163.5,357.5C 117.833,357.5 72.1667,357.5 26.5,357.5C 26.5,357.167 26.5,356.833 26.5,356.5C 72.0031,356.832 117.336,356.499 162.5,355.5C 162.216,353.585 162.549,351.919 163.5,350.5 Z"/></g>
<g><path style="opacity:1" fill="#749a6e" d="M 164.5,350.5 C 164.833,350.5 165.167,350.5 165.5,350.5C 165.5,352.5 165.5,354.5 165.5,356.5C 184.576,356.82 203.576,356.487 222.5,355.5C 203.529,357.488 184.196,358.154 164.5,357.5C 164.5,355.167 164.5,352.833 164.5,350.5 Z"/></g>
<g><path style="opacity:1" fill="#6f9669" d="M 286.5,352.5 C 287.451,353.919 287.784,355.585 287.5,357.5C 268.659,357.83 249.993,357.497 231.5,356.5C 249.833,356.5 268.167,356.5 286.5,356.5C 286.5,355.167 286.5,353.833 286.5,352.5 Z"/></g>
<g><path style="opacity:1" fill="#fdfdfc" d="M 289.5,357.5 C 335.833,357.5 382.167,357.5 428.5,357.5C 428.5,358.5 428.5,359.5 428.5,360.5C 428.167,360.5 427.833,360.5 427.5,360.5C 381.335,359.667 335.002,359.167 288.5,359C 289.056,358.617 289.389,358.117 289.5,357.5 Z"/></g>
<g><path style="opacity:1" fill="#90b18b" d="M 221.5,360.5 C 202.833,360.5 184.167,360.5 165.5,360.5C 165.5,362.167 165.5,363.833 165.5,365.5C 164.549,364.081 164.216,362.415 164.5,360.5C 183.5,359.167 202.5,359.167 221.5,360.5 Z"/></g>
<g><path style="opacity:1" fill="#8eb189" d="M 231.5,360.5 C 249.993,359.503 268.659,359.17 287.5,359.5C 287.802,362.059 287.468,364.393 286.5,366.5C 286.5,364.5 286.5,362.5 286.5,360.5C 268.167,360.5 249.833,360.5 231.5,360.5 Z"/></g>
<g><path style="opacity:1" fill="#1b6e05" d="M 162.5,360.5 C 162.779,365.227 163.446,369.893 164.5,374.5C 118.5,374.5 72.5,374.5 26.5,374.5C 26.5,369.833 26.5,365.167 26.5,360.5C 71.8333,360.5 117.167,360.5 162.5,360.5 Z"/></g>
<g><path style="opacity:1" fill="#1b6e04" d="M 427.5,360.5 C 427.5,365.167 427.5,369.833 427.5,374.5C 380.761,374.172 334.095,374.505 287.5,375.5C 288.648,370.57 289.315,365.57 289.5,360.5C 335.5,360.5 381.5,360.5 427.5,360.5 Z"/></g>
<g><path style="opacity:1" fill="#558808" d="M 26.5,374.5 C 72.5,374.5 118.5,374.5 164.5,374.5C 166.44,380.653 168.773,386.653 171.5,392.5C 123.167,392.5 74.8333,392.5 26.5,392.5C 26.5,386.5 26.5,380.5 26.5,374.5 Z"/></g>
<g><path style="opacity:1" fill="#558808" d="M 427.5,374.5 C 427.5,380.5 427.5,386.5 427.5,392.5C 378.5,392.5 329.5,392.5 280.5,392.5C 283.156,386.87 285.489,381.203 287.5,375.5C 334.095,374.505 380.761,374.172 427.5,374.5 Z"/></g>
<g><path style="opacity:1" fill="#cddcbf" d="M 427.5,360.5 C 427.833,360.5 428.167,360.5 428.5,360.5C 428.5,468.5 428.5,576.5 428.5,684.5C 428.167,684.5 427.833,684.5 427.5,684.5C 424.021,685.99 420.688,685.657 417.5,683.5C 419.262,678.943 422.595,676.276 427.5,675.5C 427.5,671.833 427.5,668.167 427.5,664.5C 427.5,658.167 427.5,651.833 427.5,645.5C 427.5,639.5 427.5,633.5 427.5,627.5C 427.5,621.5 427.5,615.5 427.5,609.5C 427.5,603.5 427.5,597.5 427.5,591.5C 427.5,585.5 427.5,579.5 427.5,573.5C 427.5,567.5 427.5,561.5 427.5,555.5C 427.5,549.5 427.5,543.5 427.5,537.5C 427.5,531.167 427.5,524.833 427.5,518.5C 427.5,512.833 427.5,507.167 427.5,501.5C 427.5,495.167 427.5,488.833 427.5,482.5C 427.5,476.5 427.5,470.5 427.5,464.5C 427.5,458.5 427.5,452.5 427.5,446.5C 427.5,440.5 427.5,434.5 427.5,428.5C 427.5,422.5 427.5,416.5 427.5,410.5C 427.5,404.5 427.5,398.5 427.5,392.5C 427.5,386.5 427.5,380.5 427.5,374.5C 427.5,369.833 427.5,365.167 427.5,360.5 Z"/></g>
<g><path style="opacity:1" fill="#1a6f04" d="M 26.5,392.5 C 74.8333,392.5 123.167,392.5 171.5,392.5C 176.463,399.131 182.13,405.131 188.5,410.5C 134.5,410.5 80.5,410.5 26.5,410.5C 26.5,404.5 26.5,398.5 26.5,392.5 Z"/></g>
<g><path style="opacity:1" fill="#1a6f04" d="M 280.5,392.5 C 329.5,392.5 378.5,392.5 427.5,392.5C 427.5,398.5 427.5,404.5 427.5,410.5C 372.833,410.5 318.167,410.5 263.5,410.5C 269.87,405.131 275.537,399.131 280.5,392.5 Z"/></g>
<g><path style="opacity:1" fill="#558808" d="M 26.5,410.5 C 80.5,410.5 134.5,410.5 188.5,410.5C 213.501,426.421 238.501,426.421 263.5,410.5C 318.167,410.5 372.833,410.5 427.5,410.5C 427.5,416.5 427.5,422.5 427.5,428.5C 293.833,428.5 160.167,428.5 26.5,428.5C 26.5,422.5 26.5,416.5 26.5,410.5 Z"/></g>
<g><path style="opacity:1" fill="#d2dfc8" d="M 255.5,301.5 C 264.039,306.367 271.372,312.701 277.5,320.5C 280.755,326.008 283.755,331.675 286.5,337.5C 288.402,343.68 289.402,350.014 289.5,356.5C 289.5,356.833 289.5,357.167 289.5,357.5C 289.389,358.117 289.056,358.617 288.5,359C 335.002,359.167 381.335,359.667 427.5,360.5C 381.5,360.5 335.5,360.5 289.5,360.5C 289.315,365.57 288.648,370.57 287.5,375.5C 285.489,381.203 283.156,386.87 280.5,392.5C 275.537,399.131 269.87,405.131 263.5,410.5C 238.501,426.421 213.501,426.421 188.5,410.5C 182.13,405.131 176.463,399.131 171.5,392.5C 168.773,386.653 166.44,380.653 164.5,374.5C 163.446,369.893 162.779,365.227 162.5,360.5C 163.167,360.5 163.833,360.5 164.5,360.5C 164.216,362.415 164.549,364.081 165.5,365.5C 165.676,368.727 166.343,371.727 167.5,374.5C 168.563,381.286 171.23,387.286 175.5,392.5C 179.833,400.167 185.833,406.167 193.5,410.5C 209.577,421.11 226.91,423.277 245.5,417C 250.368,415.67 254.701,413.504 258.5,410.5C 266.167,406.167 272.167,400.167 276.5,392.5C 280.765,387.297 283.431,381.297 284.5,374.5C 285.768,372.095 286.435,369.428 286.5,366.5C 287.468,364.393 287.802,362.059 287.5,359.5C 287.5,358.833 287.5,358.167 287.5,357.5C 287.784,355.585 287.451,353.919 286.5,352.5C 286.876,347.106 285.876,342.106 283.5,337.5C 281.177,330.847 277.844,324.847 273.5,319.5C 266.738,310.737 258.072,304.737 247.5,301.5C 240.318,298.143 232.651,296.809 224.5,297.5C 216.971,296.754 209.971,298.087 203.5,301.5C 193.486,305.182 185.153,311.182 178.5,319.5C 174.14,324.882 170.807,330.882 168.5,337.5C 166.867,341.659 165.867,345.992 165.5,350.5C 165.167,350.5 164.833,350.5 164.5,350.5C 164.672,349.508 164.338,348.842 163.5,348.5C 163.959,345.123 164.626,341.789 165.5,338.5C 165.5,338.167 165.5,337.833 165.5,337.5C 168.296,331.245 171.629,325.245 175.5,319.5C 181.529,312.326 188.529,306.326 196.5,301.5C 216.151,292.254 235.818,292.254 255.5,301.5 Z"/></g>
<g><path style="opacity:1" fill="#578912" d="M 193.5,410.5 C 215.167,410.5 236.833,410.5 258.5,410.5C 254.701,413.504 250.368,415.67 245.5,417C 226.91,423.277 209.577,421.11 193.5,410.5 Z"/></g>
<g><path style="opacity:1" fill="#1b6f05" d="M 175.5,392.5 C 209.167,392.5 242.833,392.5 276.5,392.5C 272.167,400.167 266.167,406.167 258.5,410.5C 236.833,410.5 215.167,410.5 193.5,410.5C 185.833,406.167 179.833,400.167 175.5,392.5 Z"/></g>
<g><path style="opacity:1" fill="#558808" d="M 167.5,374.5 C 206.5,374.5 245.5,374.5 284.5,374.5C 283.431,381.297 280.765,387.297 276.5,392.5C 242.833,392.5 209.167,392.5 175.5,392.5C 171.23,387.286 168.563,381.286 167.5,374.5 Z"/></g>
<g><path style="opacity:1" fill="#1b6e04" d="M 221.5,360.5 C 224.833,364.5 228.167,364.5 231.5,360.5C 249.833,360.5 268.167,360.5 286.5,360.5C 286.5,362.5 286.5,364.5 286.5,366.5C 286.435,369.428 285.768,372.095 284.5,374.5C 245.5,374.5 206.5,374.5 167.5,374.5C 166.343,371.727 165.676,368.727 165.5,365.5C 165.5,363.833 165.5,362.167 165.5,360.5C 184.167,360.5 202.833,360.5 221.5,360.5 Z"/></g>
<g><path style="opacity:1" fill="#1b6f05" d="M 178.5,319.5 C 210.167,319.5 241.833,319.5 273.5,319.5C 277.844,324.847 281.177,330.847 283.5,337.5C 245.167,337.5 206.833,337.5 168.5,337.5C 170.807,330.882 174.14,324.882 178.5,319.5 Z"/></g>
<g><path style="opacity:1" fill="#558809" d="M 203.5,301.5 C 218.167,301.5 232.833,301.5 247.5,301.5C 258.072,304.737 266.738,310.737 273.5,319.5C 241.833,319.5 210.167,319.5 178.5,319.5C 185.153,311.182 193.486,305.182 203.5,301.5 Z"/></g>
<g><path style="opacity:1" fill="#206e0c" d="M 247.5,301.5 C 232.833,301.5 218.167,301.5 203.5,301.5C 209.971,298.087 216.971,296.754 224.5,297.5C 232.651,296.809 240.318,298.143 247.5,301.5 Z"/></g>
<g><path style="opacity:1" fill="#1a6f04" d="M 26.5,428.5 C 160.167,428.5 293.833,428.5 427.5,428.5C 427.5,434.5 427.5,440.5 427.5,446.5C 293.833,446.5 160.167,446.5 26.5,446.5C 26.5,440.5 26.5,434.5 26.5,428.5 Z"/></g>
<g><path style="opacity:1" fill="#498208" d="M 26.5,446.5 C 160.167,446.5 293.833,446.5 427.5,446.5C 427.5,452.5 427.5,458.5 427.5,464.5C 427.167,464.5 426.833,464.5 426.5,464.5C 426.5,458.833 426.5,453.167 426.5,447.5C 293.5,447.5 160.5,447.5 27.5,447.5C 27.5,453.167 27.5,458.833 27.5,464.5C 27.1667,464.5 26.8333,464.5 26.5,464.5C 26.5,458.5 26.5,452.5 26.5,446.5 Z"/></g>
<g><path style="opacity:1" fill="#558808" d="M 426.5,464.5 C 293.5,464.5 160.5,464.5 27.5,464.5C 27.5,458.833 27.5,453.167 27.5,447.5C 160.5,447.5 293.5,447.5 426.5,447.5C 426.5,453.167 426.5,458.833 426.5,464.5 Z"/></g>
<g><path style="opacity:1" fill="#1b6f04" d="M 26.5,464.5 C 26.8333,464.5 27.1667,464.5 27.5,464.5C 160.5,464.5 293.5,464.5 426.5,464.5C 426.833,464.5 427.167,464.5 427.5,464.5C 427.5,470.5 427.5,476.5 427.5,482.5C 293.833,482.5 160.167,482.5 26.5,482.5C 26.5,476.5 26.5,470.5 26.5,464.5 Z"/></g>
<g><path style="opacity:1" fill="#3f7d09" d="M 26.5,482.5 C 160.167,482.5 293.833,482.5 427.5,482.5C 427.5,488.833 427.5,495.167 427.5,501.5C 293.833,501.5 160.167,501.5 26.5,501.5C 26.5,495.167 26.5,488.833 26.5,482.5 Z"/></g>
<g><path style="opacity:1" fill="#558807" d="M 27.5,483.5 C 160.5,483.5 293.5,483.5 426.5,483.5C 426.5,489.167 426.5,494.833 426.5,500.5C 293.5,500.5 160.5,500.5 27.5,500.5C 27.5,494.833 27.5,489.167 27.5,483.5 Z"/></g>
<g><path style="opacity:1" fill="#196f04" d="M 26.5,501.5 C 160.167,501.5 293.833,501.5 427.5,501.5C 427.5,507.167 427.5,512.833 427.5,518.5C 293.999,518.167 160.666,518.5 27.5,519.5C 27.1667,519.5 26.8333,519.5 26.5,519.5C 26.5,513.5 26.5,507.5 26.5,501.5 Z"/></g>
<g><path style="opacity:1" fill="#397c09" d="M 27.5,519.5 C 160.666,518.5 293.999,518.167 427.5,518.5C 427.5,524.833 427.5,531.167 427.5,537.5C 369.167,537.5 310.833,537.5 252.5,537.5C 252.167,537.5 251.833,537.5 251.5,537.5C 309.664,536.501 367.998,536.168 426.5,536.5C 426.5,530.833 426.5,525.167 426.5,519.5C 293.5,519.5 160.5,519.5 27.5,519.5 Z"/></g>
<g><path style="opacity:1" fill="#558808" d="M 26.5,519.5 C 26.8333,519.5 27.1667,519.5 27.5,519.5C 160.5,519.5 293.5,519.5 426.5,519.5C 426.5,525.167 426.5,530.833 426.5,536.5C 367.998,536.168 309.664,536.501 251.5,537.5C 234.234,529.282 217.234,529.616 200.5,538.5C 142.669,537.501 84.6691,537.168 26.5,537.5C 26.5,531.5 26.5,525.5 26.5,519.5 Z"/></g>
<g><path style="opacity:1" fill="#1a6f04" d="M 26.5,537.5 C 84.6691,537.168 142.669,537.501 200.5,538.5C 193.186,542.815 187.186,548.482 182.5,555.5C 130.5,555.5 78.5,555.5 26.5,555.5C 26.5,549.5 26.5,543.5 26.5,537.5 Z"/></g>
<g><path style="opacity:1" fill="#1a6f04" d="M 252.5,537.5 C 310.833,537.5 369.167,537.5 427.5,537.5C 427.5,543.5 427.5,549.5 427.5,555.5C 375.5,555.5 323.5,555.5 271.5,555.5C 266.455,548.121 260.122,542.121 252.5,537.5 Z"/></g>
<g><path style="opacity:1" fill="#dce7d3" d="M 251.5,537.5 C 251.833,537.5 252.167,537.5 252.5,537.5C 260.122,542.121 266.455,548.121 271.5,555.5C 273.119,559.069 274.452,562.736 275.5,566.5C 276.038,568.117 276.371,569.784 276.5,571.5C 275.833,571.5 275.167,571.5 274.5,571.5C 274.737,570.209 274.404,569.209 273.5,568.5C 272.578,563.327 270.578,558.66 267.5,554.5C 261.828,546.165 254.161,540.498 244.5,537.5C 232.135,532.205 219.802,532.205 207.5,537.5C 198.249,540.947 191.249,546.947 186.5,555.5C 182.879,559.071 180.546,563.404 179.5,568.5C 178.596,569.209 178.263,570.209 178.5,571.5C 177.833,570.833 177.167,570.167 176.5,569.5C 177.967,564.571 179.967,559.904 182.5,555.5C 187.186,548.482 193.186,542.815 200.5,538.5C 217.234,529.616 234.234,529.282 251.5,537.5 Z"/></g>
<g><path style="opacity:1" fill="#1b6f06" d="M 207.5,537.5 C 219.833,537.5 232.167,537.5 244.5,537.5C 254.161,540.498 261.828,546.165 267.5,554.5C 240.672,555.498 213.672,555.831 186.5,555.5C 191.249,546.947 198.249,540.947 207.5,537.5 Z"/></g>
<g><path style="opacity:1" fill="#4f8513" d="M 244.5,537.5 C 232.167,537.5 219.833,537.5 207.5,537.5C 219.802,532.205 232.135,532.205 244.5,537.5 Z"/></g>
<g><path style="opacity:1" fill="#558808" d="M 26.5,555.5 C 78.5,555.5 130.5,555.5 182.5,555.5C 179.967,559.904 177.967,564.571 176.5,569.5C 151.736,570.158 127.069,570.824 102.5,571.5C 102.5,572.167 102.5,572.833 102.5,573.5C 102.167,573.5 101.833,573.5 101.5,573.5C 76.5,573.5 51.5,573.5 26.5,573.5C 26.5,567.5 26.5,561.5 26.5,555.5 Z"/></g>
<g><path style="opacity:1" fill="#568809" d="M 267.5,554.5 C 270.578,558.66 272.578,563.327 273.5,568.5C 258.181,569.833 242.515,570.499 226.5,570.5C 210.485,570.499 194.819,569.833 179.5,568.5C 180.546,563.404 182.879,559.071 186.5,555.5C 213.672,555.831 240.672,555.498 267.5,554.5 Z"/></g>
<g><path style="opacity:1" fill="#558808" d="M 271.5,555.5 C 323.5,555.5 375.5,555.5 427.5,555.5C 427.5,561.5 427.5,567.5 427.5,573.5C 402.167,573.5 376.833,573.5 351.5,573.5C 351.672,572.508 351.338,571.842 350.5,571.5C 326.339,570.502 302.006,570.169 277.5,570.5C 277.771,568.62 277.104,567.287 275.5,566.5C 274.452,562.736 273.119,559.069 271.5,555.5 Z"/></g>
<g><path style="opacity:1" fill="#6c9332" d="M 176.5,569.5 C 152.523,571.49 128.19,572.157 103.5,571.5C 103.167,571.5 102.833,571.5 102.5,571.5C 127.069,570.824 151.736,570.158 176.5,569.5 Z"/></g>
<g><path style="opacity:1" fill="#6c9331" d="M 179.5,568.5 C 194.819,569.833 210.485,570.499 226.5,570.5C 242.515,570.499 258.181,569.833 273.5,568.5C 274.404,569.209 274.737,570.209 274.5,571.5C 242.5,571.5 210.5,571.5 178.5,571.5C 178.263,570.209 178.596,569.209 179.5,568.5 Z"/></g>
<g><path style="opacity:1" fill="#6a922f" d="M 275.5,566.5 C 277.104,567.287 277.771,568.62 277.5,570.5C 302.006,570.169 326.339,570.502 350.5,571.5C 325.833,571.5 301.167,571.5 276.5,571.5C 276.371,569.784 276.038,568.117 275.5,566.5 Z"/></g>
<g><path style="opacity:1" fill="#1a6e04" d="M 26.5,573.5 C 51.5,573.5 76.5,573.5 101.5,573.5C 101.5,579.5 101.5,585.5 101.5,591.5C 76.5,591.5 51.5,591.5 26.5,591.5C 26.5,585.5 26.5,579.5 26.5,573.5 Z"/></g>
<g><path style="opacity:1" fill="#0e5f09" d="M 104.5,573.5 C 185.833,573.5 267.167,573.5 348.5,573.5C 348.5,579.5 348.5,585.5 348.5,591.5C 348.167,591.5 347.833,591.5 347.5,591.5C 347.5,585.833 347.5,580.167 347.5,574.5C 266.833,574.5 186.167,574.5 105.5,574.5C 105.5,580.167 105.5,585.833 105.5,591.5C 105.167,591.5 104.833,591.5 104.5,591.5C 104.5,585.5 104.5,579.5 104.5,573.5 Z"/></g>
<g><path style="opacity:1" fill="#1a6e04" d="M 351.5,573.5 C 376.833,573.5 402.167,573.5 427.5,573.5C 427.5,579.5 427.5,585.5 427.5,591.5C 402.167,591.5 376.833,591.5 351.5,591.5C 351.5,585.5 351.5,579.5 351.5,573.5 Z"/></g>
<g><path style="opacity:1" fill="#1a6f04" d="M 347.5,591.5 C 266.833,591.5 186.167,591.5 105.5,591.5C 105.5,585.833 105.5,580.167 105.5,574.5C 186.167,574.5 266.833,574.5 347.5,574.5C 347.5,580.167 347.5,585.833 347.5,591.5 Z"/></g>
<g><path style="opacity:1" fill="#558808" d="M 26.5,591.5 C 51.5,591.5 76.5,591.5 101.5,591.5C 101.5,597.5 101.5,603.5 101.5,609.5C 76.5,609.5 51.5,609.5 26.5,609.5C 26.5,603.5 26.5,597.5 26.5,591.5 Z"/></g>
<g><path style="opacity:1" fill="#558809" d="M 104.5,591.5 C 104.833,591.5 105.167,591.5 105.5,591.5C 186.167,591.5 266.833,591.5 347.5,591.5C 347.833,591.5 348.167,591.5 348.5,591.5C 348.5,597.5 348.5,603.5 348.5,609.5C 267.167,609.5 185.833,609.5 104.5,609.5C 104.5,603.5 104.5,597.5 104.5,591.5 Z"/></g>
<g><path style="opacity:1" fill="#e9efe2" d="M 176.5,569.5 C 177.167,570.167 177.833,570.833 178.5,571.5C 210.5,571.5 242.5,571.5 274.5,571.5C 275.167,571.5 275.833,571.5 276.5,571.5C 301.167,571.5 325.833,571.5 350.5,571.5C 350.5,609.5 350.5,647.5 350.5,685.5C 349.833,678.5 349.167,671.5 348.5,664.5C 348.5,664.167 348.5,663.833 348.5,663.5C 348.5,657.5 348.5,651.5 348.5,645.5C 348.5,639.5 348.5,633.5 348.5,627.5C 348.5,621.5 348.5,615.5 348.5,609.5C 348.5,603.5 348.5,597.5 348.5,591.5C 348.5,585.5 348.5,579.5 348.5,573.5C 267.167,573.5 185.833,573.5 104.5,573.5C 103.662,573.158 103.328,572.492 103.5,571.5C 128.19,572.157 152.523,571.49 176.5,569.5 Z"/></g>
<g><path style="opacity:1" fill="#558808" d="M 351.5,591.5 C 376.833,591.5 402.167,591.5 427.5,591.5C 427.5,597.5 427.5,603.5 427.5,609.5C 402.167,609.5 376.833,609.5 351.5,609.5C 351.5,603.5 351.5,597.5 351.5,591.5 Z"/></g>
<g><path style="opacity:1" fill="#1a6f04" d="M 26.5,609.5 C 51.5,609.5 76.5,609.5 101.5,609.5C 101.5,615.5 101.5,621.5 101.5,627.5C 76.5,627.5 51.5,627.5 26.5,627.5C 26.5,621.5 26.5,615.5 26.5,609.5 Z"/></g>
<g><path style="opacity:1" fill="#1a6f04" d="M 104.5,609.5 C 185.833,609.5 267.167,609.5 348.5,609.5C 348.5,615.5 348.5,621.5 348.5,627.5C 348.167,627.5 347.833,627.5 347.5,627.5C 266.5,627.5 185.5,627.5 104.5,627.5C 104.5,621.5 104.5,615.5 104.5,609.5 Z"/></g>
<g><path style="opacity:1" fill="#1a6f04" d="M 351.5,609.5 C 376.833,609.5 402.167,609.5 427.5,609.5C 427.5,615.5 427.5,621.5 427.5,627.5C 402.167,627.5 376.833,627.5 351.5,627.5C 351.5,621.5 351.5,615.5 351.5,609.5 Z"/></g>
<g><path style="opacity:1" fill="#e8eee6" d="M 224.5,611.5 C 231.745,611.555 233.745,614.722 230.5,621C 225.643,622.753 222.643,621.253 221.5,616.5C 222.092,614.577 223.092,612.911 224.5,611.5 Z"/></g>
<g><path style="opacity:1" fill="#4a8114" d="M 104.5,627.5 C 185.5,627.5 266.5,627.5 347.5,627.5C 267.002,628.499 186.335,628.833 105.5,628.5C 105.5,634.167 105.5,639.833 105.5,645.5C 105.5,651.833 105.5,658.167 105.5,664.5C 105.5,671.167 105.5,677.833 105.5,684.5C 105.167,684.5 104.833,684.5 104.5,684.5C 104.5,665.5 104.5,646.5 104.5,627.5 Z"/></g>
<g><path style="opacity:1" fill="#558808" d="M 26.5,627.5 C 51.5,627.5 76.5,627.5 101.5,627.5C 101.5,633.5 101.5,639.5 101.5,645.5C 76.5,645.5 51.5,645.5 26.5,645.5C 26.5,639.5 26.5,633.5 26.5,627.5 Z"/></g>
<g><path style="opacity:1" fill="#57890b" d="M 347.5,627.5 C 347.833,627.5 348.167,627.5 348.5,627.5C 348.5,633.5 348.5,639.5 348.5,645.5C 329.167,645.5 309.833,645.5 290.5,645.5C 290.5,644.833 290.167,644.5 289.5,644.5C 247.5,644.5 205.5,644.5 163.5,644.5C 162.833,644.5 162.5,644.833 162.5,645.5C 143.5,645.5 124.5,645.5 105.5,645.5C 105.5,639.833 105.5,634.167 105.5,628.5C 186.335,628.833 267.002,628.499 347.5,627.5 Z"/></g>
<g><path style="opacity:1" fill="#558808" d="M 351.5,627.5 C 376.833,627.5 402.167,627.5 427.5,627.5C 427.5,633.5 427.5,639.5 427.5,645.5C 402.167,645.5 376.833,645.5 351.5,645.5C 351.5,639.5 351.5,633.5 351.5,627.5 Z"/></g>
<g><path style="opacity:1" fill="#217008" d="M 101.5,573.5 C 101.833,573.5 102.167,573.5 102.5,573.5C 102.5,610.5 102.5,647.5 102.5,684.5C 101.509,678.021 101.176,671.354 101.5,664.5C 76.5,664.5 51.5,664.5 26.5,664.5C 26.5,658.167 26.5,651.833 26.5,645.5C 51.5,645.5 76.5,645.5 101.5,645.5C 101.5,639.5 101.5,633.5 101.5,627.5C 101.5,621.5 101.5,615.5 101.5,609.5C 101.5,603.5 101.5,597.5 101.5,591.5C 101.5,585.5 101.5,579.5 101.5,573.5 Z"/></g>
<g><path style="opacity:1" fill="#1c7005" d="M 290.5,645.5 C 309.833,645.5 329.167,645.5 348.5,645.5C 348.5,651.5 348.5,657.5 348.5,663.5C 329.243,664.487 309.909,664.82 290.5,664.5C 290.5,658.167 290.5,651.833 290.5,645.5 Z"/></g>
<g><path style="opacity:1" fill="#1c7004" d="M 351.5,645.5 C 376.833,645.5 402.167,645.5 427.5,645.5C 427.5,651.833 427.5,658.167 427.5,664.5C 402.167,664.5 376.833,664.5 351.5,664.5C 351.5,658.167 351.5,651.833 351.5,645.5 Z"/></g>
<g><path style="opacity:1" fill="#558708" d="M 351.5,664.5 C 376.833,664.5 402.167,664.5 427.5,664.5C 427.5,668.167 427.5,671.833 427.5,675.5C 422.595,676.276 419.262,678.943 417.5,683.5C 417.5,683.833 417.5,684.167 417.5,684.5C 395.5,684.5 373.5,684.5 351.5,684.5C 351.5,677.833 351.5,671.167 351.5,664.5 Z"/></g>
<g><path style="opacity:1" fill="#58890f" d="M 26.5,664.5 C 51.5,664.5 76.5,664.5 101.5,664.5C 101.176,671.354 101.509,678.021 102.5,684.5C 80.8333,685.833 59.1667,685.833 37.5,684.5C 35.9635,678.969 32.2968,675.969 26.5,675.5C 26.5,671.833 26.5,668.167 26.5,664.5 Z"/></g>
<g><path style="opacity:1" fill="#588910" d="M 348.5,663.5 C 348.5,663.833 348.5,664.167 348.5,664.5C 348.5,671.5 348.5,678.5 348.5,685.5C 329.167,685.5 309.833,685.5 290.5,685.5C 290.5,678.5 290.5,671.5 290.5,664.5C 309.909,664.82 329.243,664.487 348.5,663.5 Z"/></g>
<g><path style="opacity:1" fill="#53840a" d="M 427.5,684.5 C 424.833,684.5 422.167,684.5 419.5,684.5C 420.298,680.036 422.964,677.703 427.5,677.5C 427.5,679.833 427.5,682.167 427.5,684.5 Z"/></g>
<g><path style="opacity:1" fill="#5d8a21" d="M 35.5,684.5 C 32.5,685.833 29.5,685.833 26.5,684.5C 26.5,682.167 26.5,679.833 26.5,677.5C 31.5642,677.235 34.5642,679.569 35.5,684.5 Z"/></g>
<g><path style="opacity:1" fill="#87ab64" d="M 350.5,571.5 C 351.338,571.842 351.672,572.508 351.5,573.5C 351.5,579.5 351.5,585.5 351.5,591.5C 351.5,597.5 351.5,603.5 351.5,609.5C 351.5,615.5 351.5,621.5 351.5,627.5C 351.5,633.5 351.5,639.5 351.5,645.5C 351.5,651.833 351.5,658.167 351.5,664.5C 351.5,671.167 351.5,677.833 351.5,684.5C 373.5,684.5 395.5,684.5 417.5,684.5C 395.34,685.497 373.006,685.831 350.5,685.5C 350.5,647.5 350.5,609.5 350.5,571.5 Z"/></g>
<g><path style="opacity:1" fill="#dde7d8" d="M 102.5,571.5 C 102.833,571.5 103.167,571.5 103.5,571.5C 103.328,572.492 103.662,573.158 104.5,573.5C 104.5,579.5 104.5,585.5 104.5,591.5C 104.5,597.5 104.5,603.5 104.5,609.5C 104.5,615.5 104.5,621.5 104.5,627.5C 104.5,646.5 104.5,665.5 104.5,684.5C 123.993,685.497 143.66,685.83 163.5,685.5C 163.833,685.5 164.167,685.5 164.5,685.5C 205.833,685.5 247.167,685.5 288.5,685.5C 289.496,672.01 289.829,658.344 289.5,644.5C 290.167,644.5 290.5,644.833 290.5,645.5C 290.5,651.833 290.5,658.167 290.5,664.5C 290.5,671.5 290.5,678.5 290.5,685.5C 309.833,685.5 329.167,685.5 348.5,685.5C 348.5,678.5 348.5,671.5 348.5,664.5C 349.167,671.5 349.833,678.5 350.5,685.5C 373.006,685.831 395.34,685.497 417.5,684.5C 417.5,684.167 417.5,683.833 417.5,683.5C 420.688,685.657 424.021,685.99 427.5,684.5C 427.833,684.5 428.167,684.5 428.5,684.5C 428.5,685.167 428.5,685.833 428.5,686.5C 294.167,686.5 159.833,686.5 25.5,686.5C 25.3284,685.508 25.6618,684.842 26.5,684.5C 29.5,685.833 32.5,685.833 35.5,684.5C 36.1667,684.5 36.8333,684.5 37.5,684.5C 59.1667,685.833 80.8333,685.833 102.5,684.5C 102.5,647.5 102.5,610.5 102.5,573.5C 102.5,572.833 102.5,572.167 102.5,571.5 Z"/></g>
<g><path style="opacity:1" fill="#9bb876" d="M 163.5,644.5 C 163.5,658.167 163.5,671.833 163.5,685.5C 143.66,685.83 123.993,685.497 104.5,684.5C 104.833,684.5 105.167,684.5 105.5,684.5C 124.5,684.5 143.5,684.5 162.5,684.5C 162.5,677.833 162.5,671.167 162.5,664.5C 162.5,658.167 162.5,651.833 162.5,645.5C 162.5,644.833 162.833,644.5 163.5,644.5 Z"/></g>
<g><path style="opacity:1" fill="#548707" d="M 105.5,664.5 C 124.5,664.5 143.5,664.5 162.5,664.5C 162.5,671.167 162.5,677.833 162.5,684.5C 143.5,684.5 124.5,684.5 105.5,684.5C 105.5,677.833 105.5,671.167 105.5,664.5 Z"/></g>
<g><path style="opacity:1" fill="#1d7004" d="M 105.5,645.5 C 124.5,645.5 143.5,645.5 162.5,645.5C 162.5,651.833 162.5,658.167 162.5,664.5C 143.5,664.5 124.5,664.5 105.5,664.5C 105.5,658.167 105.5,651.833 105.5,645.5 Z"/></g>
<g><path style="opacity:1" fill="#f1f5ee" d="M 163.5,644.5 C 205.5,644.5 247.5,644.5 289.5,644.5C 289.829,658.344 289.496,672.01 288.5,685.5C 288.5,678.167 288.5,670.833 288.5,663.5C 288.5,657.833 288.5,652.167 288.5,646.5C 247.5,646.5 206.5,646.5 165.5,646.5C 164.505,659.323 164.171,672.323 164.5,685.5C 164.167,685.5 163.833,685.5 163.5,685.5C 163.5,671.833 163.5,658.167 163.5,644.5 Z"/></g>
<g><path style="opacity:1" fill="#99b671" d="M 165.5,646.5 C 165.5,646.833 165.5,647.167 165.5,647.5C 165.5,653.167 165.5,658.833 165.5,664.5C 165.5,671.167 165.5,677.833 165.5,684.5C 206.337,684.832 247.003,684.499 287.5,683.5C 287.5,677.167 287.5,670.833 287.5,664.5C 287.5,664.167 287.5,663.833 287.5,663.5C 287.833,663.5 288.167,663.5 288.5,663.5C 288.5,670.833 288.5,678.167 288.5,685.5C 247.167,685.5 205.833,685.5 164.5,685.5C 164.171,672.323 164.505,659.323 165.5,646.5 Z"/></g>
<g><path style="opacity:1" fill="#4b7702" d="M 165.5,664.5 C 165.833,664.5 166.167,664.5 166.5,664.5C 166.5,670.833 166.5,677.167 166.5,683.5C 206.833,683.5 247.167,683.5 287.5,683.5C 247.003,684.499 206.337,684.832 165.5,684.5C 165.5,677.833 165.5,671.167 165.5,664.5 Z"/></g>
<g><path style="opacity:1" fill="#558807" d="M 166.5,664.5 C 206.833,664.5 247.167,664.5 287.5,664.5C 287.5,670.833 287.5,677.167 287.5,683.5C 247.167,683.5 206.833,683.5 166.5,683.5C 166.5,677.167 166.5,670.833 166.5,664.5 Z"/></g>
<g><path style="opacity:1" fill="#1b6f04" d="M 165.5,647.5 C 206.167,647.5 246.833,647.5 287.5,647.5C 287.5,652.833 287.5,658.167 287.5,663.5C 287.5,663.833 287.5,664.167 287.5,664.5C 247.167,664.5 206.833,664.5 166.5,664.5C 166.167,664.5 165.833,664.5 165.5,664.5C 165.5,658.833 165.5,653.167 165.5,647.5 Z"/></g>
<g><path style="opacity:1" fill="#33752e" d="M 165.5,647.5 C 165.5,647.167 165.5,646.833 165.5,646.5C 206.5,646.5 247.5,646.5 288.5,646.5C 288.5,652.167 288.5,657.833 288.5,663.5C 288.167,663.5 287.833,663.5 287.5,663.5C 287.5,658.167 287.5,652.833 287.5,647.5C 246.833,647.5 206.167,647.5 165.5,647.5 Z"/></g>
</svg>
